<svg width="37" height="16" viewBox="0 0 37 16" fill="none" xmlns="http://www.w3.org/2000/svg">
<path d="M33.5626 8.74191L25.7812 7.57861L26.8128 12.0022L33.5626 8.74191Z" fill="#D12053"/>
<path d="M33.5689 8.74214L27.7054 0.970093L25.7891 7.58026L33.5689 8.74214Z" fill="#E2136E"/>
<path d="M25.5969 7.49051L19.4531 -0.00012207L27.4986 0.916783L25.5969 7.49051Z" fill="#D12053"/>
<path d="M22.7982 4.36053L19.3867 1.29346H20.2847L22.7982 4.36053Z" fill="#9E1638"/>
<path d="M35.2189 4.96375L33.775 8.70002L31.4346 5.61189L35.2189 4.96375Z" fill="#D12053"/>
<path d="M27.7227 11.7785L33.3881 9.60726L33.6258 8.91711L27.7227 11.7785Z" fill="#E2136E"/>
<path d="M23.1895 15.8759L25.6164 7.75378L26.8475 13.0383L23.1895 15.8759Z" fill="#9E1638"/>
<path d="M35.4477 4.99316L34.8519 6.53582L37.0001 6.50222L35.4477 4.99316ZM0.745117 5.6119C0.849298 5.6203 0.954947 5.6385 1.06646 5.6385C1.17798 5.6385 1.26896 5.6203 1.38781 5.6119V8.89739C1.72677 8.34724 2.15376 7.98468 2.78178 7.98468C3.9175 7.98468 4.40466 9.05697 4.40466 10.0425C4.40466 11.2226 3.74436 12.3523 2.58663 12.3523C2.35483 12.3571 2.12607 12.3014 1.9251 12.1911C1.72413 12.0808 1.55863 11.9201 1.44651 11.7265C1.25282 11.8889 1.08114 12.0835 0.89772 12.2599H0.750987L0.745117 5.6119ZM1.37314 10.4442C1.37314 11.4017 1.79867 12.0695 2.49859 12.0695C3.40687 12.0695 3.69887 10.9048 3.69887 10.0789C3.69887 9.11997 3.36725 8.36544 2.58076 8.35704C1.6622 8.35004 1.37314 9.38734 1.37314 10.4456V10.4442Z" fill="#E2136E"/>
<path d="M7.36689 7.73679L6.68311 8.57671C7.32581 9.47262 7.99198 10.3503 8.6376 11.2574L9.2891 12.2373V12.2863C9.12916 12.2765 8.9839 12.2569 8.8489 12.2569C8.71391 12.2569 8.54369 12.2765 8.3999 12.2863C8.22235 11.9728 8.04627 11.683 7.84524 11.3988L6.08444 8.91407C6.04482 8.87488 5.94944 8.84408 5.94944 8.88468V12.2863C5.82032 12.2765 5.70733 12.2569 5.59582 12.2569C5.4843 12.2569 5.35517 12.2765 5.24219 12.2863V5.61181C5.35517 5.62021 5.47696 5.64121 5.59582 5.64121C5.71467 5.64121 5.82032 5.62021 5.94944 5.61181V8.6243C5.94944 8.6831 6.06977 8.6439 6.149 8.56551C6.30184 8.41434 6.44492 8.25446 6.57746 8.08676L8.5569 5.60901C8.66108 5.61741 8.76526 5.63841 8.87825 5.63841C8.99123 5.63841 9.0778 5.61741 9.19226 5.60901L7.36689 7.73679ZM12.6919 11.5346C12.6919 11.8818 12.6684 12.0582 13.1423 11.9434V12.1379C13.0649 12.175 12.9838 12.2045 12.9002 12.2261C12.482 12.3059 12.1357 12.2345 12.0712 11.7124L11.9993 11.7894C11.8595 11.9641 11.6791 12.1056 11.4724 12.2028C11.2657 12.2999 11.0382 12.3501 10.8078 12.3493C10.2385 12.3493 9.73957 11.921 9.73957 11.2644C9.73957 10.2523 10.4732 10.1194 11.226 9.98636C11.8628 9.87158 12.08 9.81838 12.08 9.39143C12.08 8.73349 11.7425 8.35273 11.1394 8.35273C10.9335 8.34888 10.7312 8.4055 10.5601 8.51491C10.389 8.62433 10.2572 8.78126 10.1827 8.96447H10.0947V8.47172C10.4568 8.17118 10.9165 7.9991 11.3962 7.98457C12.2399 7.98457 12.6992 8.47172 12.6992 9.47542L12.6919 11.5346ZM12.0492 10.069L11.766 10.1306C11.2186 10.2453 10.3984 10.3335 10.3984 11.144C10.3984 11.704 10.6919 11.984 11.1849 11.984C11.4399 11.954 11.6732 11.8317 11.8364 11.6424C11.8951 11.578 12.0565 11.4268 12.0565 11.3624L12.0492 10.069ZM14.1254 11.417C14.3162 11.7656 14.6713 12.0778 15.0499 12.0778C15.2659 12.0672 15.4691 11.9769 15.6165 11.8258C15.7639 11.6748 15.8438 11.4749 15.8393 11.2686C15.8393 10.0704 13.9391 10.8487 13.9391 9.29763C13.9391 8.44652 14.526 7.98597 15.2494 7.98597C15.5693 7.97925 15.8848 8.05876 16.1592 8.21554C16.0799 8.42092 16.0162 8.63143 15.9684 8.84548H15.8951C15.7894 8.55291 15.5091 8.25894 15.2113 8.25894C14.8092 8.25894 14.4776 8.51791 14.4776 8.99807C14.4776 10.1334 16.3778 9.52861 16.3778 10.9495C16.3778 11.9 15.606 12.3493 14.8958 12.3493C14.5401 12.3491 14.1919 12.2519 13.8921 12.0694C13.9642 11.8564 14.0205 11.6389 14.0609 11.4184L14.1254 11.417ZM17.4607 5.61181C17.5678 5.62021 17.672 5.63841 17.7835 5.63841C17.895 5.63841 17.986 5.62021 18.1063 5.61181V8.84408C18.3881 8.30234 18.8297 7.98457 19.402 7.98457C20.3352 7.98457 20.6976 8.59491 20.6976 9.71479V12.2863C20.5759 12.2765 20.4819 12.2597 20.3748 12.2597C20.2677 12.2597 20.1577 12.2779 20.052 12.2863V9.91777C20.052 8.93787 19.8451 8.44372 19.1599 8.44372C18.435 8.44372 18.1063 8.94207 18.1063 9.86458V12.2863C17.986 12.2765 17.8906 12.2597 17.7835 12.2597C17.6764 12.2597 17.5693 12.2779 17.4607 12.2863V5.61181Z" fill="#231F20"/>
</svg>
