<svg width="30" height="30" viewBox="0 0 30 30" fill="none" xmlns="http://www.w3.org/2000/svg">
<g clip-path="url(#clip0_1834_19599)">
<path d="M17.8461 16.1049H16.9756V16.9754H17.8461V16.1049Z" fill="#0970CD"/>
<path d="M19.5873 16.1049H18.7168V16.9754H19.5873V16.1049Z" fill="#0970CD"/>
<path d="M20.9289 18.9715C21.1834 18.4901 21.3202 17.9552 21.3282 17.4107V16.1049C21.4436 16.1049 21.5544 16.0591 21.636 15.9774C21.7176 15.8958 21.7635 15.7851 21.7635 15.6697V14.3639C21.7628 13.7869 21.5333 13.2337 21.1253 12.8257C20.7173 12.4177 20.1641 12.1882 19.5871 12.1875H18.2814V11.317C18.2814 11.2015 18.2355 11.0908 18.1539 11.0092C18.0722 10.9276 17.9615 10.8817 17.8461 10.8817C17.5404 10.9068 17.2466 11.0118 16.9944 11.1864C16.7421 11.3609 16.5402 11.5987 16.4089 11.8759L15.9775 11.4445C15.9322 11.3987 15.8771 11.3636 15.8164 11.3419C15.7557 11.3202 15.6909 11.3124 15.6268 11.3191C15.5627 11.3254 15.5008 11.3459 15.4456 11.3791C15.3904 11.4122 15.3433 11.4572 15.3076 11.5108C15.0989 11.7912 14.9571 12.1156 14.8929 12.4592C14.8287 12.8028 14.8439 13.1565 14.9374 13.4933H14.3639C14.2485 13.4933 14.1378 13.5392 14.0562 13.6208C13.9745 13.7024 13.9287 13.8131 13.9287 13.9286C13.9287 14.8011 14.8196 15.5783 15.2345 15.8928V17.4107C15.2424 17.9552 15.3793 18.4901 15.6338 18.9715L13.6569 20.553C13.6059 20.5938 13.5647 20.6455 13.5364 20.7043C13.5081 20.7632 13.4934 20.8276 13.4934 20.8929V22.1987C13.4934 22.3141 13.5393 22.4248 13.6209 22.5065C13.7025 22.5881 13.8132 22.634 13.9287 22.634C14.0441 22.634 14.1548 22.5881 14.2365 22.5065C14.3181 22.4248 14.3639 22.3141 14.3639 22.1987V21.102L16.1543 19.6697C16.2726 19.7863 16.4019 19.8912 16.5403 19.9831V20.0223C16.5403 20.4841 16.7237 20.927 17.0502 21.2535C17.3767 21.58 17.8196 21.7634 18.2813 21.7634C18.7431 21.7634 19.186 21.58 19.5125 21.2535C19.839 20.927 20.0224 20.4841 20.0224 20.0223V19.9831C20.1608 19.8912 20.2901 19.7863 20.4083 19.6697L22.1987 21.102V25.2456H19.1519V24.375H20.8929C21.0084 24.375 21.1191 24.3292 21.2007 24.2475C21.2824 24.1659 21.3282 24.0552 21.3282 23.9398V22.634C21.3282 22.5185 21.2824 22.4078 21.2007 22.3262C21.1191 22.2445 21.0084 22.1987 20.8929 22.1987C20.7775 22.1987 20.6668 22.2445 20.5852 22.3262C20.5035 22.4078 20.4577 22.5185 20.4577 22.634V23.5045H17.8461C17.4999 23.5049 17.168 23.6426 16.9232 23.8874C16.6784 24.1322 16.5407 24.4641 16.5403 24.8103V25.2456H15.2345V24.8103C15.2341 24.4641 15.0964 24.1322 14.8516 23.8874C14.6068 23.6426 14.2749 23.5049 13.9287 23.5045H12.6229V17.846C12.6229 17.7306 12.577 17.6198 12.4954 17.5382C12.4138 17.4566 12.303 17.4107 12.1876 17.4107H5.22335C5.10791 17.4107 4.9972 17.4566 4.91557 17.5382C4.83394 17.6198 4.78809 17.7306 4.78809 17.846V27.4219C4.78809 27.5373 4.83394 27.6481 4.91557 27.7297C4.9972 27.8113 5.10791 27.8572 5.22335 27.8572H22.634C22.7494 27.8572 22.8602 27.8113 22.9418 27.7297C23.0234 27.6481 23.0693 27.5373 23.0693 27.4219V20.8929C23.0693 20.8276 23.0546 20.7632 23.0263 20.7043C22.998 20.6455 22.9568 20.5938 22.9058 20.553L20.9289 18.9715ZM18.2814 19.5883C16.1818 19.5883 16.1067 17.6333 16.105 17.412V15.7908C16.1945 15.6349 16.3204 15.5029 16.472 15.4062C16.6236 15.3095 16.7964 15.251 16.9756 15.2357C17.1682 15.2577 17.3525 15.3267 17.5122 15.4365C17.672 15.5463 17.8024 15.6937 17.892 15.8656C17.9282 15.9373 17.9835 15.9977 18.0518 16.0399C18.1202 16.0821 18.1989 16.1046 18.2792 16.1049H18.282C18.362 16.1047 18.4405 16.0824 18.5088 16.0407C18.5771 15.9989 18.6327 15.9393 18.6694 15.8681C18.7589 15.6956 18.8893 15.5477 19.0494 15.4374C19.2094 15.3271 19.3941 15.2578 19.5871 15.2356C19.7663 15.2509 19.9391 15.3094 20.0907 15.4061C20.2423 15.5028 20.3682 15.6348 20.4577 15.7908V17.4105C20.456 17.6333 20.3809 19.5883 18.2814 19.5883ZM15.6698 14.3639C15.7558 14.3639 15.84 14.3383 15.9116 14.2905C15.9831 14.2427 16.0389 14.1747 16.0719 14.0952C16.1048 14.0156 16.1134 13.9281 16.0966 13.8437C16.0798 13.7593 16.0384 13.6817 15.9775 13.6209C15.8483 13.4654 15.7627 13.2785 15.7294 13.0791C15.6961 12.8798 15.7163 12.6751 15.7879 12.4861L16.2325 12.9306C16.285 12.983 16.35 13.0212 16.4213 13.0415C16.4927 13.0617 16.5681 13.0634 16.6403 13.0464C16.7125 13.0294 16.7791 12.9942 16.8339 12.9441C16.8887 12.8941 16.9297 12.8309 16.9532 12.7605C17.0552 12.4741 17.2105 12.2095 17.4108 11.9807V12.6228C17.4108 12.7382 17.4567 12.8489 17.5383 12.9306C17.6199 13.0122 17.7307 13.0581 17.8461 13.0581H19.5872C19.9334 13.0584 20.2653 13.1961 20.5101 13.4409C20.7549 13.6857 20.8926 14.0177 20.893 14.3639V14.9466C20.7284 14.7632 20.5271 14.6166 20.3021 14.5162C20.0772 14.4157 19.8335 14.3639 19.5872 14.3639C19.3408 14.3639 19.0972 14.4157 18.8722 14.5162C18.6472 14.6166 18.4459 14.7632 18.2814 14.9466C18.1148 14.7658 17.913 14.6209 17.6885 14.5207C17.464 14.4205 17.2214 14.3671 16.9756 14.3639C16.7064 14.3693 16.4417 14.4334 16.1999 14.5518C15.9581 14.6701 15.745 14.8398 15.5756 15.0491C15.3364 14.8516 15.1268 14.6208 14.9531 14.3639H15.6698ZM18.2814 20.8929C18.113 20.8926 17.9483 20.8435 17.8073 20.7515C17.6663 20.6595 17.5549 20.5286 17.4868 20.3746C18.0107 20.4853 18.552 20.4853 19.0759 20.3746C19.0078 20.5286 18.8965 20.6595 18.7554 20.7515C18.6144 20.8435 18.4497 20.8926 18.2814 20.8929ZM17.4108 24.8103C17.411 24.6949 17.4569 24.5843 17.5385 24.5027C17.6201 24.4211 17.7307 24.3752 17.8461 24.375H18.2814V25.2456H17.4108V24.8103ZM14.3639 24.8103V25.2456H5.65862V24.375H13.9287C14.0441 24.3752 14.1547 24.4211 14.2363 24.5027C14.3179 24.5843 14.3638 24.6949 14.3639 24.8103ZM5.65862 18.2813H11.7523V23.5045H5.65862V18.2813ZM22.1987 26.9866H5.65862V26.1161H22.1987V26.9866Z" fill="#0970CD"/>
<path d="M8.70522 19.587C8.44695 19.587 8.19449 19.6636 7.97975 19.8071C7.76501 19.9506 7.59765 20.1545 7.49881 20.3931C7.39998 20.6317 7.37412 20.8943 7.42451 21.1476C7.47489 21.4009 7.59926 21.6336 7.78188 21.8162C7.9645 21.9988 8.19717 22.1232 8.45047 22.1736C8.70377 22.2239 8.96632 22.1981 9.20493 22.0992C9.44353 22.0004 9.64747 21.833 9.79095 21.6183C9.93444 21.4036 10.011 21.1511 10.011 20.8928C10.0106 20.5466 9.87295 20.2147 9.62814 19.9699C9.38334 19.7251 9.05142 19.5874 8.70522 19.587ZM8.70522 21.3281C8.61913 21.3281 8.53498 21.3026 8.4634 21.2548C8.39182 21.2069 8.33603 21.1389 8.30308 21.0594C8.27014 20.9799 8.26152 20.8924 8.27831 20.8079C8.29511 20.7235 8.33656 20.6459 8.39744 20.5851C8.45831 20.5242 8.53587 20.4827 8.6203 20.4659C8.70474 20.4491 8.79225 20.4578 8.87179 20.4907C8.95132 20.5237 9.0193 20.5794 9.06713 20.651C9.11496 20.7226 9.14049 20.8068 9.14049 20.8928C9.14034 21.0082 9.09443 21.1189 9.01283 21.2005C8.93124 21.2821 8.82061 21.328 8.70522 21.3281Z" fill="#0970CD"/>
<path d="M27.7015 11.4188L14.2083 0.101805C14.1299 0.0360455 14.0309 0 13.9286 0C13.8263 0 13.7272 0.0360455 13.6489 0.101805L0.155624 11.4188C0.0871573 11.4762 0.0380128 11.5532 0.0148636 11.6395C-0.00828555 11.7258 -0.00431774 11.8171 0.0262283 11.9011C0.0567743 11.985 0.112418 12.0576 0.185605 12.1088C0.258791 12.16 0.345974 12.1875 0.435314 12.1875H3.48219V27.4219C3.48219 27.5373 3.52805 27.648 3.60968 27.7297C3.69131 27.8113 3.80202 27.8571 3.91746 27.8571C4.0329 27.8571 4.14361 27.8113 4.22524 27.7297C4.30687 27.648 4.35273 27.5373 4.35273 27.4219V11.7522C4.35273 11.6368 4.30687 11.5261 4.22524 11.4445C4.14361 11.3628 4.0329 11.317 3.91746 11.317H1.63166L13.9286 1.00337L26.2255 11.317H23.9397C23.8242 11.317 23.7135 11.3628 23.6319 11.4445C23.5503 11.5261 23.5044 11.6368 23.5044 11.7522V27.4219C23.5044 27.5373 23.5503 27.648 23.6319 27.7297C23.7135 27.8113 23.8242 27.8571 23.9397 27.8571C24.0551 27.8571 24.1658 27.8113 24.2475 27.7297C24.3291 27.648 24.375 27.5373 24.375 27.4219V12.1875H27.4218C27.5112 12.1875 27.5984 12.16 27.6715 12.1088C27.7447 12.0576 27.8004 11.985 27.8309 11.9011C27.8615 11.8171 27.8654 11.7258 27.8423 11.6395C27.8191 11.5532 27.77 11.4762 27.7015 11.4188H27.7015Z" fill="#0970CD"/>
<path d="M5.50505 10.778L13.9286 3.61814L22.3521 10.778C22.44 10.8527 22.554 10.8895 22.669 10.8801C22.7841 10.8708 22.8907 10.8162 22.9654 10.7282C23.0402 10.6403 23.0769 10.5263 23.0676 10.4112C23.0583 10.2962 23.0036 10.1896 22.9157 10.1149L14.2104 2.7153C14.1317 2.64842 14.0318 2.61169 13.9286 2.61169C13.8253 2.61169 13.7254 2.64842 13.6467 2.7153L4.94141 10.1149C4.85348 10.1896 4.79884 10.2962 4.78951 10.4112C4.78018 10.5263 4.81693 10.6403 4.89168 10.7282C4.96642 10.8162 5.07303 10.8708 5.18806 10.8801C5.30309 10.8895 5.41711 10.8527 5.50505 10.778Z" fill="#0970CD"/>
</g>
<defs>
<clipPath id="clip0_1834_19599">
<rect width="30" height="30" fill="white"/>
</clipPath>
</defs>
</svg>
