<svg width="28" height="29" viewBox="0 0 28 29" fill="none" xmlns="http://www.w3.org/2000/svg">
<path d="M24.7127 4.98012C24.706 4.97876 24.6991 4.97724 24.6923 4.97588C24.4691 3.99995 23.0351 3.51647 21.9669 4.05534C20.1326 3.07658 19.9417 1.89427 19.9334 1.83562C19.8512 0.703862 15.3539 0.607178 13.9016 0.607178C12.4493 0.607178 7.9533 0.703917 7.86989 1.83513C7.85792 1.91647 7.65372 3.08582 5.83586 4.05566C4.76943 3.51642 3.33394 4.00163 3.11106 4.97582C1.51461 5.29558 0.508789 6.38779 0.508789 7.5752C0.508789 7.58554 0.509279 7.59588 0.510259 7.60616C0.525444 7.76079 0.901865 11.4357 2.69838 15.1758C4.28189 18.4724 6.92999 21.7024 11.3124 22.6343C10.9636 23.5114 10.3726 24.036 10.1196 24.2307H9.13862C8.85667 24.2307 8.58466 24.3104 8.37276 24.4552L6.87771 25.4765C6.62705 25.6477 6.48324 25.8948 6.48324 26.1542V27.5621C6.48324 28.0596 7.00375 28.4643 7.64357 28.4643H12.6771C12.967 28.4643 13.2019 28.2816 13.2019 28.0562C13.2019 27.8308 12.967 27.6481 12.6771 27.6481H7.6435C7.58248 27.6481 7.53286 27.6095 7.53286 27.5621V26.1542C7.53286 26.1295 7.54651 26.1059 7.57044 26.0896L9.06549 25.0683C9.08571 25.0545 9.11168 25.0468 9.13855 25.0468H10.3225H17.4808H18.6647C18.6915 25.0468 18.7175 25.0545 18.7377 25.0683L20.2328 26.0896C20.2567 26.106 20.2704 26.1295 20.2704 26.1543V27.5621C20.2704 27.6096 20.2207 27.6482 20.1597 27.6482H15.1262C14.8363 27.6482 14.6014 27.8308 14.6014 28.0563C14.6014 28.2817 14.8363 28.4643 15.1262 28.4643H20.1597C20.7995 28.4643 21.3201 28.0596 21.3201 27.5621V26.1543C21.3201 25.8948 21.1762 25.6477 20.9256 25.4766L19.4305 24.4553C19.2186 24.3105 18.9466 24.2308 18.6647 24.2308H17.6839C17.4294 24.035 16.8392 23.5105 16.4909 22.6344C20.8601 21.7053 23.5049 18.4918 25.0896 15.2075C25.1913 14.9965 25.0539 14.7612 24.7824 14.6821C24.5111 14.603 24.2085 14.7098 24.1067 14.9209C22.5683 18.1095 20.0427 21.2345 15.7399 21.9366C13.9924 22.2233 12.7606 22.0141 12.0291 21.9324C8.45135 21.338 5.65118 18.9817 3.68881 14.9052C1.99754 11.3918 1.5869 7.82342 1.55848 7.55948C1.56723 6.74275 2.25303 6.03005 3.24528 5.79397C3.41246 6.07755 3.70028 6.31417 4.06691 6.45727C3.38132 6.72496 2.97054 7.31981 3.1105 7.93664V7.9367C3.25038 8.55375 3.89861 9.00273 4.66097 9.07177C3.44696 10.0708 4.6539 11.69 6.36672 11.3726C6.06609 11.9124 6.23187 12.5749 6.85826 12.9835C7.47226 13.3841 8.3391 13.4091 8.98431 13.0793C8.93974 13.6748 9.39691 14.2487 10.154 14.463H10.154C10.9137 14.6779 11.7365 14.4645 12.1937 13.9868C12.6991 15.3023 15.1042 15.3022 15.6097 13.9868C16.6653 15.0898 18.9214 14.447 18.8191 13.0793C20.2948 13.834 22.1329 12.6296 21.4356 11.3724C23.1634 11.6934 24.3462 10.0634 23.1431 9.07232C24.8971 8.91562 25.3112 7.06996 23.7384 6.45727C23.9994 6.35558 24.2254 6.20459 24.3976 6.01345C24.4605 5.94359 24.5141 5.87014 24.5589 5.79419C25.5506 6.03038 26.2361 6.74302 26.2447 7.55953C26.2213 7.77853 25.9352 10.285 24.8648 13.1416C24.7837 13.3579 24.9436 13.5844 25.2219 13.6474C25.5006 13.7106 25.7916 13.5859 25.8726 13.3698C27.0179 10.3133 27.2823 7.71531 27.293 7.60622C27.2941 7.59588 27.2945 7.58554 27.2945 7.5752C27.2946 6.35013 26.2328 5.28296 24.7127 4.98012ZM12.3426 22.8059C13.362 22.93 14.4396 22.9302 15.4607 22.8059C15.6893 23.4119 16.0179 23.8845 16.3253 24.2307H11.478C11.7854 23.8845 12.1141 23.4118 12.3426 22.8059ZM22.3999 4.83191C22.8094 4.48647 23.554 4.65644 23.6591 5.11963C23.7283 5.42529 23.4689 5.72427 23.0646 5.77977C22.6646 5.83429 22.2858 5.62721 22.2155 5.31751C22.1777 5.15069 22.2308 4.98039 22.3999 4.83191ZM13.9016 1.42331C16.3876 1.42331 18.0189 1.67495 18.6563 1.87186C17.5057 2.22687 15.1474 2.32051 13.9016 2.32051C12.6724 2.32051 10.2862 2.22562 9.14695 1.87186C9.78439 1.675 11.4157 1.42331 13.9016 1.42331ZM4.44564 4.75177C4.9779 4.46188 5.701 4.81782 5.58778 5.31746C5.44383 5.95143 4.22954 5.95524 4.13458 5.24868C4.12128 5.04802 4.2399 4.86374 4.44564 4.75177ZM4.14417 7.79491C4.07405 7.48548 4.34074 7.18934 4.73864 7.13476C5.13718 7.08052 5.51752 7.2876 5.58778 7.59702C5.65811 7.90726 5.39218 8.20237 4.99323 8.25716C4.59421 8.31184 4.21464 8.10509 4.14417 7.79491ZM6.32228 10.5175C5.97155 10.675 5.52361 10.5818 5.32108 10.309C5.03998 9.93029 5.39253 9.45432 5.95461 9.45432C6.70227 9.45427 6.96918 10.2271 6.32228 10.5175ZM8.56555 12.2881C8.14722 12.6756 7.33076 12.476 7.27394 11.9715C7.2386 11.6578 7.53664 11.3817 7.94022 11.3542C8.58606 11.3094 8.98501 11.8995 8.56555 12.2881ZM11.4524 13.3555C11.3141 13.6507 10.8927 13.8035 10.5129 13.6961C10.1332 13.5886 9.93674 13.261 10.0749 12.9658C10.2131 12.6705 10.6344 12.5177 11.0143 12.6252C11.3941 12.7326 11.5906 13.0603 11.4524 13.3555ZM13.9016 14.1606C13.4976 14.1606 13.1687 13.905 13.1687 13.5907C13.1687 13.2765 13.4975 13.0209 13.9016 13.0209C14.3058 13.0209 14.6346 13.2765 14.6346 13.5907C14.6346 13.905 14.3058 14.1606 13.9016 14.1606ZM17.2905 13.696C16.9106 13.8035 16.4893 13.6507 16.351 13.3555C16.2128 13.0602 16.4093 12.7326 16.7891 12.6251C17.1682 12.5176 17.5901 12.67 17.7285 12.9657C17.8666 13.2609 17.6702 13.5886 17.2905 13.696ZM20.2704 12.3584C19.7721 12.6838 19.0123 12.3762 19.0692 11.8722C19.1261 11.367 19.9427 11.1682 20.3608 11.5556C20.6205 11.7963 20.58 12.1565 20.2704 12.3584ZM20.2116 10.5733C19.0449 10.3595 17.9511 11.0763 18.0195 12.0045C17.0052 11.4872 15.6715 11.8837 15.3322 12.7648C15.007 12.4253 14.4868 12.2048 13.9016 12.2048C13.3165 12.2048 12.7964 12.4253 12.4712 12.7648C12.1331 11.8873 10.8011 11.4847 9.78271 12.0051C9.85276 11.0803 8.76255 10.3588 7.59172 10.5733C8.06471 9.71869 7.34868 8.75588 6.16077 8.64777C6.53432 8.33981 6.72313 7.90329 6.62152 7.45529C6.51984 7.00679 6.14971 6.64655 5.66238 6.45667C6.14936 6.26673 6.51984 5.90747 6.62152 5.45919C6.68289 5.1884 6.63782 4.92201 6.51046 4.68544C7.79774 3.97862 8.39998 3.16657 8.6792 2.60382C10.0312 3.04181 12.4778 3.13653 13.9017 3.13653C15.2518 3.13653 17.8908 3.02608 19.1233 2.60414C19.4018 3.16657 20.0035 3.97764 21.292 4.68495C21.1612 4.9274 21.1217 5.19406 21.1818 5.45914C21.2835 5.90752 21.6541 6.26678 22.1412 6.45672C21.0762 6.87153 20.817 7.96559 21.6406 8.64717C20.4481 8.75751 19.7411 9.7231 20.2116 10.5733ZM22.4822 10.3089C22.2797 10.5818 21.8319 10.6749 21.481 10.5175C21.131 10.3603 21.0107 10.0111 21.2127 9.73904C21.4154 9.46618 21.863 9.37303 22.2139 9.53049C22.5639 9.68768 22.6842 10.0369 22.4822 10.3089ZM22.8101 8.25722C22.4111 8.20248 22.1452 7.90726 22.2155 7.59708C22.3283 7.10054 23.1626 6.95266 23.5378 7.36916C23.9106 7.78332 23.4518 8.34471 22.8101 8.25722Z" fill="#0970CD"/>
</svg>
