<svg width="30" height="30" viewBox="0 0 30 30" fill="none" xmlns="http://www.w3.org/2000/svg">
<path d="M7.87307 7.18726L7.87311 7.18726C7.89136 6.97752 8.07315 6.81212 8.28606 6.82134L8.29041 6.82153L8.2904 6.82162C8.49881 6.83976 8.6655 7.0134 8.65633 7.2344L8.65626 7.23607L8.65625 7.23607C8.608 8.06326 8.53538 8.60732 8.41058 9.11C8.28619 9.61106 8.11055 10.0681 7.86076 10.7182L7.86023 10.7196L7.8601 10.7199L7.67939 11.1951C7.26172 15.0521 7.09798 17.5502 7.17317 20.0399L7.17318 20.0401C7.23423 22.1769 7.47672 24.3284 7.88831 27.3313L12.7549 27.338C12.7623 27.2878 12.7707 27.2291 12.7803 27.1628C12.867 26.5598 13.0439 25.3297 13.3267 24.1767C13.4933 23.4973 13.6982 22.8379 13.9462 22.3468C14.0701 22.1014 14.2074 21.8926 14.3604 21.744C14.5139 21.595 14.69 21.5006 14.8877 21.5016M7.87307 7.18726L14.8872 21.6016M7.87307 7.18726L7.8729 7.19021M7.87307 7.18726L7.8729 7.19021M14.8877 21.5016L14.8872 21.6016M14.8877 21.5016C14.8876 21.5016 14.8874 21.5016 14.8872 21.5016V21.6016M14.8877 21.5016C15.085 21.5018 15.2608 21.5967 15.4141 21.7458C15.567 21.8946 15.7043 22.1035 15.8282 22.3488C16.0762 22.8396 16.2811 23.4981 16.4477 24.1767C16.7322 25.3351 16.9095 26.5715 16.9957 27.1723C17.0046 27.2346 17.0126 27.2901 17.0196 27.338M14.8872 21.6016C16.0955 21.6016 16.7089 25.8774 16.8965 27.1854C16.9115 27.2897 16.9237 27.3752 16.9334 27.4381M17.0196 27.338L16.9332 27.3381L16.9334 27.4381M17.0196 27.338L21.8928 27.3313M17.0196 27.338C17.0242 27.3697 17.0284 27.3981 17.0322 27.4229L16.9334 27.4381M16.9334 27.4381L21.8928 27.3313M21.8928 27.3313L21.9801 27.3312L21.9802 27.4312L21.8811 27.4178C21.885 27.3889 21.8889 27.3601 21.8928 27.3313ZM7.8729 7.19021C7.82845 7.96621 7.76032 8.46929 7.64563 8.93135C7.53134 9.39183 7.37025 9.81435 7.13518 10.4309L7.13124 10.4412C7.11753 10.4747 7.10398 10.5171 7.09099 10.5578L7.08911 10.5637C7.07601 10.6048 7.06271 10.6465 7.04804 10.6863C7.03867 10.7116 7.02926 10.7348 7.01975 10.7551L4.13272 6.99341L7.8729 7.19021ZM22.9434 11.7774L23.5413 12.0845L23.5422 12.085C23.7077 12.1677 23.9111 12.1227 24.0233 11.9741C24.0235 11.9738 24.0238 11.9735 24.024 11.9731L27.112 8.06172C27.1121 8.06165 27.1121 8.06158 27.1122 8.0615C27.2245 7.92086 27.222 7.72636 27.1139 7.58222L27.1137 7.58196C25.0092 4.79436 22.4641 2.8019 19.4695 1.05335L19.4695 1.05334L19.4681 1.05255C19.4128 1.02143 19.3476 0.987353 19.2742 0.975703C19.1957 0.963232 19.116 0.977344 19.0325 1.02569L19.0323 1.02578C17.5239 1.90281 16.2127 2.33752 14.9083 2.34175C13.604 2.34597 12.2946 1.91976 10.7898 1.05305L10.7898 1.05303L10.7878 1.05191C10.7121 1.01064 10.6385 0.975325 10.5558 0.972817C10.4708 0.97024 10.3925 1.00227 10.305 1.05332L22.9434 11.7774ZM22.9434 11.7774C23.3071 15.2899 23.4525 17.6773 23.3848 20.0595L23.3848 20.0597C23.2985 22.9596 22.8923 25.8332 22.488 28.6933C22.4732 28.7977 22.4585 28.9021 22.4438 29.0065C22.4318 29.209 22.2581 29.3715 22.0558 29.3715H16.851H16.751V29.3545C16.6005 29.3178 16.486 29.1879 16.4636 29.0316L16.4634 29.03C16.2791 27.5689 16.0881 26.3402 15.8906 25.3433C15.694 24.9701 15.5137 24.6975 15.3441 24.5192C15.1723 24.3385 15.0228 24.2662 14.888 24.2672C14.7528 24.2682 14.6028 24.343 14.4306 24.5256C14.2609 24.7055 14.0806 24.9786 13.884 25.35C13.6933 26.3395 13.5025 27.5534 13.3183 28.9988C13.3069 29.2086 13.1328 29.3715 12.9234 29.3715H7.71864C7.5231 29.3715 7.35867 29.2234 7.33128 29.0316L7.33125 29.0314C7.31658 28.9272 7.30188 28.823 7.28718 28.7188C6.88263 25.8503 6.47616 22.9682 6.39648 20.0597C6.32203 17.6774 6.46726 15.2899 6.83104 11.7775L6.23312 12.0845L6.23027 12.086L6.23025 12.0859C6.05638 12.1683 5.85478 12.1136 5.74431 11.9673L2.6624 8.05488C2.66232 8.05478 2.66223 8.05468 2.66215 8.05458C2.55111 7.91542 2.5509 7.71342 2.66151 7.57402C4.7658 4.79393 7.31757 2.79486 10.305 1.05332L22.9434 11.7774ZM19.0826 1.11223C19.213 1.03669 19.3092 1.07791 19.4191 1.13971L19.0826 1.11223ZM19.0826 1.11223V1.11223V1.11223ZM22.7142 10.8167L22.763 10.9175L22.831 10.8286L22.7822 10.7279L22.7142 10.8167ZM20.6316 2.5626C20.6028 2.54373 20.574 2.52489 20.5451 2.50609C20.5341 2.53879 20.523 2.5713 20.5117 2.60364C20.5404 2.62241 20.5692 2.64122 20.5978 2.66006C20.6092 2.62775 20.6205 2.59526 20.6316 2.5626ZM9.26144 2.61119C9.25055 2.57862 9.23982 2.54586 9.22926 2.51293C9.20024 2.53166 9.17127 2.55043 9.14235 2.56925C9.15301 2.60215 9.16384 2.63487 9.17484 2.66742C9.20366 2.64864 9.23253 2.62989 9.26144 2.61119ZM25.6911 6.92909L25.6418 6.99342C25.6594 7.01383 25.6769 7.03429 25.6944 7.0548L25.7705 6.98989L25.6911 6.92909ZM22.6435 10.4424L22.642 10.4384L22.6401 10.4345L22.5501 10.478L22.6435 10.4424ZM22.0076 10.684L21.9142 10.7196L21.9143 10.7199L22.0076 10.684ZM22.0936 11.1823C22.0941 11.1866 22.0945 11.1908 22.095 11.1951L22.0996 11.2071L22.193 11.1715L22.0936 11.1823ZM17.1936 28.5878C17.181 28.4872 17.1671 28.3871 17.1535 28.289C17.1453 28.2302 17.1373 28.172 17.1296 28.1149H21.7825L21.715 28.5878H17.1936ZM26.3096 7.81363L23.6145 11.2438L23.4368 11.1515L26.1504 7.61148C26.2033 7.67751 26.2563 7.74521 26.3096 7.81363ZM15.2639 22.9904C15.3519 23.2249 15.4306 23.4694 15.4867 23.6538C15.2932 23.5411 15.0917 23.4828 14.8869 23.4835C14.6821 23.4842 14.4808 23.5437 14.2874 23.6581C14.3435 23.4725 14.4223 23.2266 14.5105 22.9912C14.5855 22.791 14.6657 22.6023 14.743 22.4651C14.7819 22.3962 14.8175 22.3447 14.8484 22.3118C14.8695 22.2894 14.8823 22.282 14.8872 22.2796C14.8921 22.282 14.9049 22.2894 14.926 22.3118C14.9569 22.3447 14.9925 22.3961 15.0314 22.4651C15.1087 22.6021 15.189 22.7906 15.2639 22.9904ZM8.05898 28.5878C8.04815 28.513 8.03757 28.4361 8.02699 28.3592C8.01569 28.277 8.00437 28.1948 7.99273 28.1149H12.6453C12.6257 28.2701 12.6057 28.4261 12.5827 28.5878H8.05898ZM3.46491 7.81355C3.51818 7.74516 3.57117 7.67748 3.62404 7.61148L6.33828 11.1523L6.16637 11.2433L3.46491 7.81355ZM11.5245 2.55143C11.4668 2.44967 11.4094 2.3445 11.3544 2.23688C12.5839 2.82593 13.7338 3.12287 14.8872 3.12287C16.0434 3.12287 17.1961 2.82449 18.4289 2.2326C18.4163 2.25881 18.4033 2.2854 18.39 2.31164C18.3558 2.37911 18.3214 2.44203 18.2906 2.48962C18.2752 2.51351 18.262 2.53147 18.2514 2.54358C18.2463 2.54937 18.2431 2.55247 18.2415 2.55384C16.7724 3.20086 15.8151 3.5098 14.8654 3.50477C13.9211 3.49977 12.9727 3.1843 11.5245 2.55143ZM17.3824 3.75517C16.6279 4.56131 15.7673 4.97029 14.9095 4.97768C14.0485 4.9851 13.1723 4.58805 12.3911 3.74851C13.3354 4.10348 14.1077 4.2852 14.8844 4.28675C15.6612 4.28829 16.4351 4.1096 17.3824 3.75517ZM15.5924 5.67797C17.1587 5.31085 18.5839 3.90117 19.4252 1.93073C19.4375 1.93812 19.4497 1.94551 19.4619 1.95287C19.6181 2.04715 19.7698 2.13875 19.9181 2.23294C19.0105 4.99179 16.906 6.32988 14.8312 6.31574C12.7563 6.3016 10.6891 4.93496 9.8551 2.23382C9.98011 2.15486 10.1089 2.07802 10.2404 1.99956C10.2783 1.97699 10.3163 1.95429 10.3546 1.93137C10.5019 2.29078 10.7257 2.77987 10.9304 3.07528C12.2706 5.32668 13.9859 6.05449 15.5924 5.67797Z" fill="#0970CD" stroke="#0970CD" stroke-width="0.2"/>
<path d="M12.5844 9.93849L10.0289 7.38306C9.92647 7.2806 9.85814 7.1524 9.83897 7.02666C9.81979 6.90093 9.85135 6.78796 9.9267 6.71261C10.0021 6.63726 10.115 6.60571 10.2408 6.62488C10.3665 6.64405 10.4947 6.71239 10.5971 6.81485L13.1526 9.37027C13.255 9.47274 13.3234 9.60094 13.3425 9.72667C13.3617 9.85241 13.3302 9.96537 13.2548 10.0407C13.1795 10.1161 13.0665 10.1476 12.9408 10.1285C12.815 10.1093 12.6868 10.041 12.5844 9.93849Z" fill="#0970CD" fill-opacity="0.75"/>
<path d="M20.6855 6.17693C20.6101 6.10158 20.4979 6.06929 20.3734 6.08717C20.249 6.10505 20.1226 6.17163 20.0219 6.27227L19.6425 6.65171C19.5418 6.75235 19.4753 6.87879 19.4574 7.00323C19.4395 7.12767 19.4718 7.23991 19.5471 7.31526C19.6225 7.39061 19.7347 7.4229 19.8592 7.40502C19.9836 7.38714 20.1101 7.32056 20.2107 7.21992L20.5901 6.84048C20.6908 6.73984 20.7573 6.6134 20.7752 6.48896C20.7931 6.36452 20.7608 6.25228 20.6855 6.17693ZM19.1677 7.6947C19.0923 7.61935 18.9801 7.58707 18.8557 7.60495C18.7312 7.62283 18.6048 7.68941 18.5041 7.79004L16.9864 9.30782C16.8857 9.40845 16.8192 9.5349 16.8013 9.65934C16.7834 9.78378 16.8157 9.89602 16.891 9.97137C16.9664 10.0467 17.0786 10.079 17.2031 10.0611C17.3275 10.0432 17.4539 9.97666 17.5546 9.87603L19.0724 8.35825C19.173 8.25762 19.2396 8.13117 19.2575 8.00673C19.2753 7.88229 19.243 7.77005 19.1677 7.6947Z" fill="#0970CD"/>
</svg>
