<svg width="30" height="30" viewBox="0 0 30 30" fill="none" xmlns="http://www.w3.org/2000/svg">
<path d="M27.8187 17.2175L27.819 17.2174C28.0999 17.1745 28.355 17.3753 28.3956 17.6581C28.8003 20.4788 29.0678 22.889 29.1903 24.8211C29.3028 26.5947 28.0583 28.1551 26.3496 28.3673C23.8472 28.6781 20.1791 29.0284 16.3599 29.0284C15.9641 29.0284 15.5667 29.0247 15.1688 29.0167C10.9313 29.102 6.74957 28.7103 3.98805 28.3673C2.27929 28.1551 1.03484 26.5947 1.14729 24.8211C1.5586 18.3338 3.49513 8.3985 3.67632 7.47891C3.69456 7.21076 3.91012 6.99276 4.1815 6.99276H8.89508C9.01487 5.38279 9.69372 3.89816 10.8381 2.76928L10.9083 2.84047L10.8381 2.76927C11.0417 2.56844 11.3646 2.57746 11.5575 2.78864L11.5575 2.78865C11.7483 2.99769 11.7402 3.32663 11.5388 3.52533L11.5388 3.52534C10.5967 4.45464 10.0301 5.67056 9.91276 6.99271H10.7469C10.9948 4.68942 12.8798 2.88717 15.1688 2.88717C17.4577 2.88717 19.3411 4.6897 19.589 6.99276H20.4246C20.1733 4.20285 17.9092 2.01748 15.1689 2.01748C14.3943 2.01748 13.6481 2.18859 12.9502 2.52627C12.9502 2.52628 12.9502 2.52628 12.9502 2.52628L12.9066 2.43627C12.7028 2.5349 12.4607 2.44305 12.3659 2.23125L27.8187 17.2175ZM27.8187 17.2175C27.5389 17.2609 27.3521 17.5294 27.3926 17.8113L27.4916 17.7971M27.8187 17.2175L27.4916 17.7971M27.4916 17.7971L27.3926 17.8113C27.7936 20.6061 28.0579 22.9874 28.1786 24.8894C28.2563 26.1147 27.3964 27.1837 26.2284 27.3287C23.4958 27.6681 19.3623 28.0547 15.182 27.9707M27.4916 17.7971L15.182 27.9707M15.182 27.9707L15.1819 27.9707C15.1819 27.9707 15.182 27.9707 15.182 27.9707ZM25.6289 8.03878H4.70886C4.73 8.33552 4.76464 8.63555 4.79887 8.9319L4.79889 8.93208L4.8011 8.95152C5.2397 12.7483 6.37851 15.3698 8.37369 17.2212C9.0314 17.8315 9.77072 18.3651 10.5711 18.8072C11.4127 19.2721 12.3153 19.598 13.2427 19.7867V19.1302C13.2427 18.4589 13.7688 17.9063 14.4239 17.9063H15.9138C16.5689 17.9063 17.095 18.4589 17.095 19.1302V19.787C18.0223 19.5983 18.9249 19.2721 19.7666 18.8072C23.0434 16.9974 24.9892 13.6897 25.5366 8.95171L25.6289 8.03878ZM25.6289 8.03878C25.6078 8.3355 25.5731 8.63549 25.5389 8.93188L25.5388 8.93208L25.5366 8.95152L25.6289 8.03878ZM4.10917 27.3287C6.84177 27.6682 10.9755 28.0555 15.1556 27.9707L4.10917 27.3287ZM4.10917 27.3287C2.94126 27.1837 2.08135 26.1148 2.15899 24.8894M4.10917 27.3287L2.15899 24.8894M2.15899 24.8894C2.43612 20.5185 3.41723 14.5439 4.0718 10.8889M2.15899 24.8894L4.0718 10.8889M4.0718 10.8889C4.67296 13.9887 5.84229 16.2794 7.69541 17.9989C8.41394 18.6656 9.22038 19.2478 10.0924 19.7294C11.0827 20.2763 12.1488 20.6495 13.2426 20.8503V21.4026C13.2426 22.0739 13.7687 22.6265 14.4238 22.6265H15.9137C16.5688 22.6265 17.0949 22.0739 17.0949 21.4026V20.8494M4.0718 10.8889L17.0949 20.8494M17.0949 20.8494C18.1886 20.6487 19.2548 20.2764 20.2451 19.7294C22.136 18.685 23.6376 17.1684 24.7077 15.2236C25.4079 13.9509 25.9273 12.4869 26.2607 10.8562C26.5129 12.2612 26.8139 14.0118 27.1035 15.8777L17.0949 20.8494ZM16.0811 21.4026C16.0811 21.5043 16.0023 21.5805 15.9138 21.5805H14.4239C14.3354 21.5805 14.2566 21.5043 14.2566 21.4026V19.1302C14.2566 19.0286 14.3354 18.9523 14.4239 18.9523H15.9138C16.0023 18.9523 16.0811 19.0285 16.0811 19.1302V21.4026ZM15.1688 3.93324C16.8918 3.93324 18.3258 5.26208 18.5675 6.99271H11.7691C12.0107 5.26202 13.4457 3.93324 15.1688 3.93324Z" fill="#0970CD" stroke="#0970CD" stroke-width="0.2"/>
</svg>
