<svg width="30" height="30" viewBox="0 0 30 30" fill="none" xmlns="http://www.w3.org/2000/svg">
<path d="M29.2053 6.1899L24.4936 1.54548C24.4089 1.4671 24.2996 1.42006 24.1841 1.41223C24.0433 1.40287 11.654 1.40623 11.5129 1.40623C11.3847 1.40623 11.2617 1.45682 11.1711 1.54687C11.0805 1.63692 11.0295 1.75905 11.0295 1.8864V15.1617H10.4066V5.57797C10.4066 5.45062 10.3556 5.32849 10.265 5.23844C10.1744 5.14839 10.0514 5.0978 9.92327 5.0978H7.35663C7.22845 5.0978 7.10552 5.14839 7.01489 5.23844C6.92425 5.32849 6.87333 5.45062 6.87333 5.57797V15.1617H6.2503V7.86138C6.25033 7.78002 6.22954 7.69998 6.18989 7.62879L4.81078 5.15499C4.76528 5.08461 4.70271 5.02672 4.62882 4.98662C4.55493 4.94653 4.47208 4.92552 4.38789 4.92552C4.3037 4.92552 4.22086 4.94653 4.14697 4.98662C4.07308 5.02672 4.01051 5.08461 3.965 5.15499L2.58589 7.62879C2.54625 7.69998 2.52546 7.78002 2.52548 7.86138V15.1617H1.97451C1.84633 15.1617 1.7234 15.2123 1.63277 15.3024C1.54213 15.3924 1.49121 15.5146 1.49121 15.6419V26.6022C1.49141 27.3053 1.7723 27.9795 2.27225 28.4771C2.77221 28.9746 3.45039 29.2549 4.15803 29.2563C11.1048 29.2563 10.797 29.2937 11.2803 29.189C11.3506 29.2312 11.4307 29.2544 11.5128 29.2563H28.8651C28.9285 29.2563 28.9914 29.2439 29.05 29.2198C29.1087 29.1957 29.162 29.1603 29.2069 29.1157C29.2518 29.0711 29.2874 29.0182 29.3116 28.9599C29.3359 28.9016 29.3484 28.8392 29.3484 28.7761V6.53083C29.3432 6.40385 29.2925 6.2829 29.2053 6.1899ZM24.6365 3.03925L27.6915 6.0506H24.6365V3.03925ZM7.83994 6.05814H9.43996V15.1617H7.83994V6.05814ZM3.49194 7.98541L4.38775 6.37866L5.28355 7.98541V15.1617H3.49194V7.98541ZM4.15803 28.2959C3.70668 28.2948 3.27419 28.1159 2.95548 27.7983C2.63676 27.4808 2.45783 27.0506 2.45796 26.6022V16.1219H12.4082V26.6022C12.4098 26.9414 12.3085 27.2732 12.1175 27.5543C11.9264 27.8354 11.6546 28.0527 11.3373 28.178C10.854 28.3637 11.0069 28.2959 4.15803 28.2959ZM12.7665 28.2959C13.5737 27.3252 13.3749 27.6015 13.3749 15.6419C13.3749 15.5146 13.324 15.3924 13.2334 15.3024C13.1427 15.2123 13.0198 15.1617 12.8916 15.1617H11.9962V2.36657H23.6699V6.53083C23.6699 6.65818 23.7208 6.78031 23.8114 6.87036C23.9021 6.96041 24.025 7.011 24.1532 7.011H28.3816V28.2959H12.7665Z" fill="#0970CD"/>
<path d="M13.9697 8.39893H19.2561V9.35927H13.9697V8.39893Z" fill="#0970CD"/>
<path d="M13.9697 6.14795H22.3976V7.1083H13.9697V6.14795Z" fill="#0970CD"/>
<path d="M13.9697 3.72827H22.3976V4.68862H13.9697V3.72827Z" fill="#0970CD"/>
<path d="M13.9697 10.6495H19.2561V11.6099H13.9697V10.6495Z" fill="#0970CD"/>
<path d="M13.9697 12.9006H19.2561V13.861H13.9697V12.9006Z" fill="#0970CD"/>
<path d="M13.9697 15.1512H26.3143V16.1116H13.9697V15.1512Z" fill="#0970CD"/>
<path d="M13.9697 17.4022H26.3143V18.3626H13.9697V17.4022Z" fill="#0970CD"/>
<path d="M13.9697 19.6528H26.3143V20.6132H13.9697V19.6528Z" fill="#0970CD"/>
<path d="M13.9697 21.9038H26.3143V22.8642H13.9697V21.9038Z" fill="#0970CD"/>
<path d="M13.9697 24.1544H26.3143V25.1148H13.9697V24.1544Z" fill="#0970CD"/>
<path d="M13.9697 26.4055H26.3143V27.3659H13.9697V26.4055Z" fill="#0970CD"/>
<path d="M26.3146 8.3988H20.6454C20.5172 8.3988 20.3943 8.44939 20.3037 8.53944C20.213 8.62949 20.1621 8.75163 20.1621 8.87898V13.3806C20.1621 13.508 20.213 13.6301 20.3037 13.7201C20.3943 13.8102 20.5172 13.8608 20.6454 13.8608H26.3146C26.4427 13.8608 26.5657 13.8102 26.6563 13.7201C26.747 13.6301 26.7979 13.508 26.7979 13.3806V8.87898C26.7979 8.75163 26.747 8.62949 26.6563 8.53944C26.5657 8.44939 26.4427 8.3988 26.3146 8.3988ZM25.8313 12.9004H21.1287V9.35915H25.8313V12.9004Z" fill="#0970CD"/>
</svg>
