<svg width="30" height="31" viewBox="0 0 30 31" fill="none" xmlns="http://www.w3.org/2000/svg">
<path d="M29.2053 6.41476L24.4936 1.77033C24.4089 1.69196 24.2996 1.64491 24.1841 1.63708C24.0433 1.62772 11.654 1.63108 11.5129 1.63108C11.3847 1.63108 11.2617 1.68167 11.1711 1.77172C11.0805 1.86177 11.0295 1.9839 11.0295 2.11125V15.3866H10.4066V5.80282C10.4066 5.67547 10.3556 5.55334 10.265 5.46329C10.1744 5.37324 10.0514 5.32265 9.92327 5.32265H7.35663C7.22845 5.32265 7.10552 5.37324 7.01489 5.46329C6.92425 5.55334 6.87333 5.67547 6.87333 5.80282V15.3866H6.2503V8.08624C6.25033 8.00487 6.22954 7.92484 6.18989 7.85364L4.81078 5.37984C4.76528 5.30946 4.70271 5.25157 4.62882 5.21148C4.55493 5.17138 4.47208 5.15037 4.38789 5.15037C4.3037 5.15037 4.22086 5.17138 4.14697 5.21148C4.07308 5.25157 4.01051 5.30946 3.965 5.37984L2.58589 7.85364C2.54625 7.92484 2.52546 8.00487 2.52548 8.08624V15.3866H1.97451C1.84633 15.3866 1.7234 15.4372 1.63277 15.5272C1.54213 15.6173 1.49121 15.7394 1.49121 15.8668V26.8271C1.49141 27.5301 1.7723 28.2044 2.27225 28.7019C2.77221 29.1995 3.45039 29.4797 4.15803 29.4811C11.1048 29.4811 10.797 29.5186 11.2803 29.4139C11.3506 29.4561 11.4307 29.4792 11.5128 29.4811H28.8651C28.9285 29.4812 28.9914 29.4688 29.05 29.4446C29.1087 29.4205 29.162 29.3852 29.2069 29.3406C29.2518 29.296 29.2874 29.243 29.3116 29.1847C29.3359 29.1265 29.3484 29.064 29.3484 29.0009V6.75568C29.3432 6.62871 29.2925 6.50775 29.2053 6.41476ZM24.6365 3.2641L27.6915 6.27546H24.6365V3.2641ZM7.83994 6.283H9.43996V15.3866H7.83994V6.283ZM3.49194 8.21027L4.38775 6.60351L5.28355 8.21027V15.3866H3.49194V8.21027ZM4.15803 28.5208C3.70668 28.5197 3.27419 28.3407 2.95548 28.0232C2.63676 27.7057 2.45783 27.2755 2.45796 26.8271V16.3467H12.4082V26.8271C12.4098 27.1662 12.3085 27.498 12.1175 27.7791C11.9264 28.0602 11.6546 28.2776 11.3373 28.4029C10.854 28.5886 11.0069 28.5208 4.15803 28.5208ZM12.7665 28.5208C13.5737 27.5501 13.3749 27.8263 13.3749 15.8668C13.3749 15.7394 13.324 15.6173 13.2334 15.5272C13.1427 15.4372 13.0198 15.3866 12.8916 15.3866H11.9962V2.59143H23.6699V6.75568C23.6699 6.88303 23.7208 7.00516 23.8114 7.09521C23.9021 7.18526 24.025 7.23585 24.1532 7.23585H28.3816V28.5208H12.7665Z" fill="#0970CD"/>
<path d="M13.9697 8.62378H19.2561V9.58412H13.9697V8.62378Z" fill="#0970CD"/>
<path d="M13.9697 6.3728H22.3976V7.33315H13.9697V6.3728Z" fill="#0970CD"/>
<path d="M13.9697 3.95312H22.3976V4.91347H13.9697V3.95312Z" fill="#0970CD"/>
<path d="M13.9697 10.8744H19.2561V11.8347H13.9697V10.8744Z" fill="#0970CD"/>
<path d="M13.9697 13.1255H19.2561V14.0858H13.9697V13.1255Z" fill="#0970CD"/>
<path d="M13.9697 15.3761H26.3143V16.3364H13.9697V15.3761Z" fill="#0970CD"/>
<path d="M13.9697 17.6271H26.3143V18.5874H13.9697V17.6271Z" fill="#0970CD"/>
<path d="M13.9697 19.8777H26.3143V20.838H13.9697V19.8777Z" fill="#0970CD"/>
<path d="M13.9697 22.1287H26.3143V23.089H13.9697V22.1287Z" fill="#0970CD"/>
<path d="M13.9697 24.3793H26.3143V25.3396H13.9697V24.3793Z" fill="#0970CD"/>
<path d="M13.9697 26.6304H26.3143V27.5907H13.9697V26.6304Z" fill="#0970CD"/>
<path d="M26.3146 8.62366H20.6454C20.5172 8.62366 20.3943 8.67425 20.3037 8.7643C20.213 8.85435 20.1621 8.97648 20.1621 9.10383V13.6055C20.1621 13.7328 20.213 13.8549 20.3037 13.945C20.3943 14.035 20.5172 14.0856 20.6454 14.0856H26.3146C26.4427 14.0856 26.5657 14.035 26.6563 13.945C26.747 13.8549 26.7979 13.7328 26.7979 13.6055V9.10383C26.7979 8.97648 26.747 8.85435 26.6563 8.7643C26.5657 8.67425 26.4427 8.62366 26.3146 8.62366ZM25.8313 13.1253H21.1287V9.584H25.8313V13.1253Z" fill="#0970CD"/>
</svg>
