<svg width="30" height="30" viewBox="0 0 30 30" fill="none" xmlns="http://www.w3.org/2000/svg">
<path d="M20.0313 19.3748C19.8308 19.2378 19.7792 18.9643 19.9162 18.7637C20.7077 17.6043 21.1261 16.2486 21.1261 14.8433C21.1261 10.9992 17.9987 7.87177 14.1546 7.87177C10.3105 7.87177 7.18303 10.9992 7.18303 14.8433C7.18303 18.6874 10.3105 21.8148 14.1546 21.8148C15.8434 21.8148 17.4741 21.2002 18.7462 20.0842C18.9287 19.9241 19.2065 19.9422 19.3667 20.1247C19.5268 20.3073 19.5086 20.5851 19.3261 20.7452C17.8935 22.002 16.0569 22.6941 14.1546 22.6941C9.82562 22.6941 6.30371 19.1722 6.30371 14.8432C6.30371 10.5142 9.82562 6.99233 14.1546 6.99233C18.4836 6.99233 22.0056 10.5143 22.0056 14.8433C22.0056 16.4262 21.5342 17.9534 20.6425 19.2595C20.5056 19.4601 20.232 19.5117 20.0313 19.3748Z" fill="#0970CD"/>
<path d="M19.103 17.3517C18.9932 17.5683 18.7286 17.6548 18.512 17.5451L15.3339 15.934C15.0401 16.2515 14.6202 16.4507 14.1546 16.4507C13.8037 16.4507 13.4789 16.3373 13.2143 16.1458L11.5012 17.498C11.3106 17.6485 11.0341 17.6159 10.8836 17.4254C10.7332 17.2348 10.7657 16.9583 10.9563 16.8078L12.6688 15.456C12.5906 15.2671 12.5473 15.0602 12.5473 14.8434C12.5473 13.9571 13.2683 13.236 14.1546 13.236C15.0409 13.236 15.7619 13.9571 15.7619 14.8434C15.7619 14.9483 15.7515 15.0507 15.7322 15.1501L18.9096 16.7608C19.1262 16.8705 19.2128 17.1351 19.103 17.3517ZM14.1546 14.1153C13.7532 14.1153 13.4267 14.4419 13.4267 14.8433C13.4267 15.2447 13.7532 15.5713 14.1546 15.5713C14.5561 15.5713 14.8826 15.2447 14.8826 14.8433C14.8827 14.4419 14.5561 14.1153 14.1546 14.1153Z" fill="#0970CD"/>
<path d="M24.3283 16.5378H23.6145C23.2772 18.426 22.3865 20.1249 21.1168 21.4602V23.8502C21.1168 24.5877 20.5168 25.1877 19.7793 25.1877H19.1504V25.9795C19.1504 26.2224 18.9535 26.4192 18.7107 26.4192C18.4679 26.4192 18.271 26.2224 18.271 25.9795V23.5253C17.0225 24.1197 15.6268 24.4529 14.1545 24.4529C12.6823 24.4529 11.2865 24.1197 10.038 23.5253V28.3954C10.038 28.7953 10.3634 29.1206 10.7633 29.1206H17.5458C17.9457 29.1206 18.2711 28.7953 18.2711 28.3954V27.8534C18.2711 27.6105 18.4679 27.4137 18.7108 27.4137C18.9536 27.4137 19.1505 27.6105 19.1505 27.8534V28.3954C19.1504 29.2802 18.4306 30 17.5458 30H10.7632C9.87847 30 9.15861 29.2802 9.15861 28.3954V25.1877H8.52986C7.79235 25.1877 7.19238 24.5878 7.19238 23.8503V21.4602C5.55269 19.7358 4.54492 17.4051 4.54492 14.8433C4.54492 12.2816 5.55263 9.95082 7.19238 8.22635V5.8362C7.19238 5.09875 7.79235 4.49879 8.52986 4.49879H9.15873V3.90362C9.15873 3.66074 9.35559 3.46393 9.59842 3.46393C9.84124 3.46393 10.0381 3.66074 10.0381 3.90362V6.16128C11.2866 5.56694 12.6823 5.23371 14.1546 5.23371C15.6269 5.23371 17.0227 5.56694 18.2711 6.16128V1.80777C18.2711 1.29597 17.8547 0.879498 17.3429 0.879498H10.9663C10.4545 0.879498 10.038 1.29597 10.038 1.80777V2.02984C10.038 2.27272 9.84118 2.46953 9.59836 2.46953C9.35553 2.46953 9.15867 2.27272 9.15867 2.02984V1.80777C9.15867 0.811022 9.96957 0.000118256 10.9663 0.000118256H17.3428C18.3395 0.000118256 19.1504 0.811022 19.1504 1.80777V4.49879H19.7792C20.5167 4.49879 21.1167 5.09875 21.1167 5.8362V8.22635C22.4563 9.63512 23.3734 11.4487 23.6645 13.4622H24.3282C24.9501 13.4622 25.456 13.9681 25.456 14.5899V15.4102C25.456 16.032 24.9501 16.5378 24.3283 16.5378ZM19.1504 24.3084H19.7792C20.0318 24.3084 20.2373 24.1028 20.2373 23.8503V22.2769C19.8939 22.5585 19.5309 22.8168 19.1503 23.0493V24.3084H19.1504ZM8.52986 24.3084H9.15867V23.0492C8.77819 22.8167 8.41513 22.5584 8.0717 22.2769V23.8502C8.0717 24.1028 8.27724 24.3084 8.52986 24.3084ZM9.15867 5.3781H8.5298C8.27718 5.3781 8.0717 5.58359 8.0717 5.83614V7.40953C8.41507 7.12801 8.77813 6.86971 9.15867 6.6372V5.3781ZM19.7792 5.3781H19.1504V6.63726C19.5309 6.86976 19.8939 7.12807 20.2374 7.40959V5.8362C20.2374 5.58359 20.0319 5.3781 19.7792 5.3781ZM14.1545 6.11297C9.34064 6.11297 5.42424 10.0294 5.42424 14.8433C5.42424 19.6571 9.34064 23.5735 14.1545 23.5735C18.9684 23.5735 22.8848 19.6571 22.8848 14.8433C22.8848 10.0294 18.9684 6.11297 14.1545 6.11297ZM24.5766 14.5899C24.5766 14.453 24.4652 14.3416 24.3283 14.3416H23.7512C23.7598 14.5078 23.7642 14.675 23.7642 14.8433C23.7642 15.1179 23.752 15.3897 23.7293 15.6585H24.3283C24.4652 15.6585 24.5766 15.5471 24.5766 15.4102V14.5899Z" fill="#0970CD"/>
</svg>
