<svg width="30" height="30" viewBox="0 0 30 30" fill="none" xmlns="http://www.w3.org/2000/svg">
<g clip-path="url(#clip0_1834_19471)">
<path d="M28.5097 26.0196C24.9289 22.6935 21.9441 17.8911 19.6693 12.8501C19.6647 12.84 19.661 12.8296 19.6565 12.8195C19.6515 12.8018 19.6458 12.7842 19.6384 12.7666C19.4166 12.2361 19.3478 11.6636 19.4319 11.0876C19.4347 11.069 19.4361 11.0506 19.4365 11.0323C19.4975 10.6577 19.6225 10.2849 19.8104 9.92665C20.3166 8.96122 20.4617 8.00789 20.4123 7.23685C20.3975 6.41148 19.9648 5.34538 19.2052 4.00117C19.0004 3.63885 18.7745 3.262 18.531 2.87421C18.1311 2.23732 17.7032 1.60136 17.2754 0.995715C17.1257 0.78371 16.9865 0.590591 16.8615 0.419949C16.7862 0.317067 16.732 0.244227 16.7025 0.205073C16.4133 -0.178789 15.764 0.0113471 15.764 0.479923C15.764 3.36753 15.4808 5.38481 15.0167 6.67821C14.9229 6.93942 14.8271 7.15534 14.7323 7.33035C14.6374 7.15534 14.5416 6.93942 14.4479 6.67821C13.9838 5.38481 13.7005 3.36758 13.7005 0.479923C13.7005 0.0113471 13.0513 -0.178734 12.762 0.205073C12.7326 0.244171 12.6784 0.317067 12.603 0.419949C12.478 0.590591 12.3389 0.783765 12.1892 0.995715C11.7613 1.60136 11.3335 2.23726 10.9335 2.87421C10.69 3.262 10.4642 3.63879 10.2594 4.00117C9.49979 5.34532 9.06708 6.41137 9.05787 7.16468C9.00258 8.00828 9.14757 8.96144 9.65352 9.92648C9.84191 10.2855 9.96704 10.6591 10.0278 11.0346C10.0283 11.0521 10.0298 11.0697 10.0324 11.0875C10.1164 11.6628 10.0475 12.2355 9.8258 12.7668C9.81914 12.7828 9.81409 12.7988 9.80933 12.815C9.80428 12.8266 9.8 12.8384 9.79477 12.85C7.5223 17.8876 4.53565 22.6931 0.954824 26.0196C0.797826 26.1654 0.758888 26.3883 0.858164 26.5728C0.963325 26.7681 1.18613 27.0211 1.56064 27.2603C2.70535 27.9914 4.5303 28.1058 7.15736 27.2923C7.19279 27.2813 7.26621 27.2603 7.37268 27.2325C7.55363 27.1852 7.75807 27.1377 7.98105 27.0933C8.81325 26.9276 9.65792 26.8509 10.4335 26.911C10.6525 26.9279 10.8623 26.9558 11.0618 26.995C12.1512 27.2092 13.026 27.3169 13.8893 27.3169H15.5752C16.4384 27.3169 17.3122 27.2093 18.4027 26.9951C18.6023 26.9558 18.8121 26.928 19.0311 26.911C19.8066 26.8509 20.6513 26.9277 21.4835 27.0934C21.7065 27.1378 21.9109 27.1852 22.0919 27.2325C22.1984 27.2604 22.2718 27.2814 22.3072 27.2924C24.9343 28.1059 26.7592 27.9915 27.9039 27.2604C28.2784 27.0212 28.5012 26.7682 28.6064 26.5728C28.7057 26.3883 28.6667 26.1655 28.5097 26.0196ZM11.1019 11.5024H18.362C18.3573 11.8247 18.3907 12.1459 18.4626 12.4608H11.0013C11.0732 12.1459 11.1065 11.8248 11.1019 11.5024ZM10.082 7.29434C10.0839 7.26529 10.0893 7.1892 10.0893 7.1892C10.0893 6.64088 10.4807 5.67125 11.1728 4.44672C11.37 4.0977 11.5885 3.73322 11.8246 3.3572C12.1046 2.91143 12.3992 2.46511 12.698 2.02962C12.7842 4.21257 13.0579 5.83532 13.469 6.98128C13.6531 7.49431 13.8557 7.88325 14.0663 8.16583C14.2114 8.36044 14.3423 8.4821 14.4461 8.54638C14.6194 8.65368 14.8451 8.65368 15.0184 8.54638C15.1223 8.4821 15.2532 8.36044 15.3982 8.16583C15.6088 7.88325 15.8114 7.49431 15.9955 6.98128C16.4067 5.83532 16.6802 4.21257 16.7665 2.02962C17.0653 2.46511 17.3599 2.91138 17.6399 3.3572C17.876 3.73322 18.0945 4.0977 18.2917 4.44672C18.9838 5.67131 19.3752 6.64088 19.3752 7.1892C19.379 7.2474 19.3806 7.26496 19.3824 7.29384C19.3962 7.50872 19.3874 7.78849 19.3383 8.11094C19.2666 8.582 19.1203 9.05416 18.883 9.50684C18.7065 9.84304 18.5742 10.1911 18.4869 10.5439H10.977C10.8897 10.191 10.7573 9.84298 10.5809 9.50673C10.3437 9.05439 10.1975 8.58244 10.1259 8.11155C10.0769 7.78915 10.0682 7.50938 10.082 7.29434ZM27.3194 26.4706C26.6761 26.8814 25.668 27.0352 24.205 26.7739C22.6528 25.7656 20.9223 23.1472 20.9223 21.5663C20.9223 21.3016 20.6914 21.087 20.4065 21.087C20.1215 21.087 19.8906 21.3016 19.8906 21.5663C19.8906 22.9567 20.8937 24.8599 22.1359 26.2516C21.9987 26.2189 21.8536 26.1869 21.6996 26.1562C20.7763 25.9724 19.8357 25.8869 18.9453 25.9559C18.8815 25.9608 18.8182 25.9666 18.7554 25.9732C18.7444 25.9363 18.7329 25.8981 18.7203 25.8569C18.6877 25.7496 18.6877 25.7496 18.6556 25.6444C18.6313 25.5641 18.6118 25.4993 18.5936 25.4372C18.419 24.8423 18.3429 24.4314 18.3429 23.9626C18.3429 23.6979 18.1119 23.4834 17.827 23.4834C17.5421 23.4834 17.3111 23.6979 17.3111 23.9626C17.3111 24.5312 17.4016 25.0193 17.5982 25.6893C17.6173 25.7544 17.6375 25.8217 17.6626 25.9044C17.695 26.0111 17.695 26.0111 17.7274 26.1173C17.73 26.1259 17.7324 26.1338 17.7349 26.1422C16.9177 26.2868 16.2361 26.3586 15.5751 26.3586H13.8892C13.4929 26.3586 13.0891 26.3328 12.6534 26.2811C12.681 26.1978 12.7137 26.1004 12.754 25.981C13.0668 25.0536 13.1843 24.5732 13.1843 23.9623C13.1843 23.6976 12.9533 23.4831 12.6684 23.4831C12.3835 23.4831 12.1525 23.6976 12.1525 23.9623C12.1525 24.4455 12.0519 24.8571 11.7695 25.6945C11.7075 25.8783 11.6623 26.0132 11.6263 26.124C11.5119 26.1031 11.3952 26.0811 11.2752 26.0575C11.0321 26.0098 10.7797 25.9762 10.519 25.956C9.62862 25.887 8.68793 25.9725 7.76467 26.1563C7.66878 26.1754 7.57682 26.1951 7.48723 26.2151C8.90533 24.7954 10.089 22.9144 10.089 21.5664C10.089 21.3017 9.85808 21.0871 9.57315 21.0871C9.28822 21.0871 9.05727 21.3017 9.05727 21.5664C9.05727 23.043 7.01517 25.6501 5.25959 26.774C3.79649 27.0353 2.78822 26.8816 2.14489 26.4707C2.09745 26.4404 2.05506 26.4107 2.01737 26.3823C5.51705 23.0124 8.41781 18.3341 10.6556 13.4193H18.8084C21.0483 18.3373 23.9473 23.0129 27.4469 26.3821C27.4092 26.4106 27.3668 26.4403 27.3194 26.4706Z" fill="#0970CD"/>
<line x1="11.5889" y1="20.5536" x2="14.6603" y2="20.5536" stroke="#0970CD" stroke-width="1.75" stroke-linecap="round"/>
<line x1="17.4824" y1="20.5536" x2="18.411" y2="20.5536" stroke="#0970CD" stroke-width="1.75" stroke-linecap="round"/>
</g>
<defs>
<clipPath id="clip0_1834_19471">
<rect width="30" height="30" fill="white"/>
</clipPath>
</defs>
</svg>
