<svg width="24" height="24" viewBox="0 0 24 24" fill="none" xmlns="http://www.w3.org/2000/svg">
<path d="M12.0002 14.9999C11.8686 15.0007 11.7381 14.9755 11.6163 14.9257C11.4944 14.8759 11.3836 14.8026 11.2902 14.7099L7.29019 10.7099C7.10188 10.5216 6.99609 10.2662 6.99609 9.99994C6.99609 9.73364 7.10188 9.47824 7.29019 9.28994C7.47849 9.10164 7.73388 8.99585 8.00019 8.99585C8.26649 8.99585 8.52188 9.10164 8.71019 9.28994L12.0002 12.5899L15.2902 9.29994C15.4815 9.13611 15.7276 9.05051 15.9792 9.06023C16.2309 9.06995 16.4697 9.17428 16.6477 9.35238C16.8258 9.53047 16.9302 9.76921 16.9399 10.0209C16.9496 10.2726 16.864 10.5186 16.7002 10.7099L12.7002 14.7099C12.5139 14.8947 12.2625 14.9988 12.0002 14.9999Z" fill="#424241"/>
</svg>
