<svg width="16" height="16" viewBox="0 0 16 16" fill="none" xmlns="http://www.w3.org/2000/svg">
<path d="M4.83293 8.43999L10.1663 14.44C10.283 14.5724 10.4476 14.6532 10.6238 14.6644C10.8001 14.6757 10.9736 14.6165 11.1063 14.5C11.2387 14.3832 11.3194 14.2186 11.3307 14.0424C11.3419 13.8662 11.2828 13.6927 11.1663 13.56L6.22627 7.99999L11.1663 2.43999C11.274 2.30621 11.326 2.13599 11.3113 1.96484C11.2966 1.79369 11.2164 1.63481 11.0875 1.52133C10.9585 1.40784 10.7907 1.34852 10.6191 1.35572C10.4475 1.36292 10.2853 1.4361 10.1663 1.55999L4.83293 7.55999C4.72605 7.68165 4.66711 7.83805 4.66711 7.99999C4.66711 8.16193 4.72605 8.31833 4.83293 8.43999Z" fill="#0198E9"/>
</svg>
