<svg width="44" height="44" viewBox="0 0 44 44" fill="none" xmlns="http://www.w3.org/2000/svg">
<rect y="0.00012207" width="44" height="44" rx="22" fill="#5D9DB1" fill-opacity="0.15"/>
<path d="M30.3986 12.1381H12.8374C12.0327 12.1381 11.3789 12.7765 11.3789 13.5601V30.4401C11.3789 31.2238 12.0327 31.8622 12.8374 31.8622H30.3986C31.2033 31.8622 31.8617 31.2238 31.8617 30.4401V13.5601C31.8617 12.7765 31.2033 12.1381 30.3986 12.1381ZM17.5695 29.0445H14.5336V19.6315H17.574V29.0445H17.5695ZM16.0515 18.3459C15.0777 18.3459 14.2913 17.5842 14.2913 16.6508C14.2913 15.7175 15.0777 14.9558 16.0515 14.9558C17.0208 14.9558 17.8118 15.7175 17.8118 16.6508C17.8118 17.5886 17.0254 18.3459 16.0515 18.3459ZM28.9493 29.0445H25.9134V24.4656C25.9134 23.3738 25.8906 21.9693 24.3361 21.9693C22.7542 21.9693 22.5118 23.158 22.5118 24.3864V29.0445H19.476V19.6315H22.3884V20.9171H22.4295C22.8365 20.1774 23.8286 19.3981 25.3054 19.3981C28.3778 19.3981 28.9493 21.3485 28.9493 23.8845V29.0445Z" fill="#268AA9"/>
</svg>
