<svg width="44" height="44" viewBox="0 0 44 44" fill="none" xmlns="http://www.w3.org/2000/svg">
<rect y="0.00012207" width="44" height="44" rx="22" fill="#FF7020" fill-opacity="0.15"/>
<path d="M24.0928 20.1169C25.8633 21.712 25.839 24.2694 24.1034 25.8401C24.1002 25.8433 24.0963 25.8467 24.0928 25.8499L22.1014 27.6422C20.345 29.2229 17.4875 29.2227 15.7314 27.6422C13.975 26.0617 13.975 23.4896 15.7314 21.9092L16.8309 20.9195C17.1225 20.6571 17.6247 20.8315 17.6398 21.2024C17.659 21.675 17.7531 22.1499 17.9269 22.6085C17.9858 22.7637 17.9437 22.9355 17.8148 23.0515L17.427 23.4005C16.5965 24.148 16.5704 25.3651 17.3928 26.1198C18.2232 26.8821 19.5882 26.8866 20.425 26.1334L22.4164 24.3415C23.2518 23.5896 23.2483 22.3744 22.4164 21.6256C22.3067 21.5271 22.1963 21.4506 22.11 21.3971C22.0489 21.3594 21.9985 21.3093 21.9628 21.251C21.927 21.1926 21.9069 21.1275 21.9041 21.0609C21.8924 20.7791 22.0033 20.4887 22.2507 20.266L22.8747 19.7044C23.0383 19.5572 23.2949 19.5391 23.4846 19.6583C23.7019 19.7948 23.9054 19.9483 24.0928 20.1169ZM28.2692 16.358C26.5131 14.7774 23.6555 14.7772 21.8991 16.358L19.9078 18.1502C19.9042 18.1534 19.9004 18.1569 19.8971 18.1601C18.1616 19.7307 18.1372 22.2881 19.9078 23.8832C20.0951 24.0519 20.2986 24.2053 20.5159 24.3418C20.7056 24.461 20.9623 24.4429 21.1259 24.2957L21.7498 23.7341C21.9972 23.5114 22.1082 23.221 22.0964 22.9392C22.0936 22.8726 22.0735 22.8075 22.0377 22.7492C22.002 22.6908 21.9516 22.6407 21.8906 22.603C21.8043 22.5495 21.6938 22.473 21.5841 22.3745C20.7522 21.6258 20.7487 20.4105 21.5841 19.6586L23.5755 17.8667C24.4123 17.1135 25.7773 17.1181 26.6078 17.8803C27.4301 18.635 27.4041 19.8521 26.5735 20.5996L26.1857 20.9486C26.0568 21.0646 26.0148 21.2364 26.0736 21.3916C26.2474 21.8502 26.3416 22.3251 26.3608 22.7977C26.3758 23.1686 26.878 23.343 27.1696 23.0806L28.2692 22.091C30.0256 20.5105 30.0256 17.9384 28.2692 16.358Z" fill="#FF7020"/>
</svg>
