<svg width="24" height="21" viewBox="0 0 24 21" fill="none" xmlns="http://www.w3.org/2000/svg">
<path id="Vector" d="M23.1288 6.47129C22.8288 5.06504 22.3413 3.90254 21.4788 2.98379C20.26 1.63379 18.6663 0.977539 16.7725 0.977539H16.5288C14.5225 1.03379 12.8725 1.84004 11.71 3.30254C11.2788 2.81504 10.735 2.32754 10.1163 1.95254C8.89751 1.22129 7.49126 0.921289 5.89751 1.03379C4.13501 1.22129 2.72876 2.00879 1.67876 3.30254C0.572514 4.76504 0.0287636 6.41504 0.0850136 8.12129C0.141264 9.71504 0.628764 11.1775 1.54751 12.5838C2.57876 14.1775 3.87251 15.3963 5.03501 16.3713C6.68501 17.8338 8.57876 19.1275 10.96 20.4588C11.2038 20.59 11.3913 20.6463 11.635 20.6463C11.8788 20.6463 12.0663 20.59 12.31 20.4588C14.3913 19.2963 16.21 18.0775 17.86 16.6713C19.5663 15.265 20.785 13.915 21.76 12.4525C23.0725 10.5588 23.485 8.60879 23.1288 6.47129Z" fill="#FF5555"/>
</svg>
