<svg width="16" height="16" viewBox="0 0 16 16" fill="none" xmlns="http://www.w3.org/2000/svg">
<path d="M11.1671 8.43999L5.83374 14.44C5.71695 14.5724 5.55238 14.6532 5.37615 14.6644C5.19992 14.6757 5.02642 14.6165 4.89374 14.5C4.76128 14.3832 4.68057 14.2186 4.66932 14.0424C4.65807 13.8662 4.71721 13.6927 4.83374 13.56L9.77373 7.99999L4.83374 2.43999C4.72599 2.30621 4.67403 2.13599 4.68871 1.96484C4.70339 1.79369 4.78356 1.63481 4.91252 1.52133C5.04148 1.40784 5.20926 1.34852 5.38089 1.35572C5.55252 1.36292 5.71475 1.4361 5.83374 1.55999L11.1671 7.55999C11.2739 7.68165 11.3329 7.83805 11.3329 7.99999C11.3329 8.16193 11.2739 8.31833 11.1671 8.43999Z" fill="#0198E9"/>
</svg>
