<svg width="23" height="23" viewBox="0 0 23 23" fill="none" xmlns="http://www.w3.org/2000/svg">
<path d="M9.66634 18.9999C11.7371 18.9995 13.7483 18.3063 15.3795 17.0306L20.5082 22.1592L22.1578 20.5096L17.0292 15.3809C18.3055 13.7495 18.9992 11.7379 18.9997 9.66658C18.9997 4.52042 14.8125 0.333252 9.66634 0.333252C4.52017 0.333252 0.333008 4.52042 0.333008 9.66658C0.333008 14.8127 4.52017 18.9999 9.66634 18.9999ZM9.66634 2.66658C13.5268 2.66658 16.6663 5.80608 16.6663 9.66658C16.6663 13.5271 13.5268 16.6666 9.66634 16.6666C5.80584 16.6666 2.66634 13.5271 2.66634 9.66658C2.66634 5.80608 5.80584 2.66658 9.66634 2.66658Z" fill="white"/>
</svg>
