<svg width="44" height="44" viewBox="0 0 44 44" fill="none" xmlns="http://www.w3.org/2000/svg">
<rect y="0.00012207" width="44" height="44" rx="22" fill="#53D1E2" fill-opacity="0.15"/>
<path d="M29.8344 17.4342C29.8469 17.6333 29.8469 17.8325 29.8469 18.0316C29.8469 24.1053 25.7795 31.1036 18.3453 31.1036C16.055 31.1036 13.9274 30.3497 12.1377 29.0411C12.4631 29.0838 12.776 29.098 13.1139 29.098C15.0037 29.098 16.7433 28.3726 18.1325 27.1351C16.3554 27.0924 14.866 25.7696 14.3529 23.9489C14.6032 23.9915 14.8535 24.02 15.1164 24.02C15.4793 24.02 15.8423 23.9631 16.1802 23.8635C14.3279 23.4368 12.9386 21.5877 12.9386 19.3545V19.2976C13.4768 19.639 14.1026 19.8523 14.7659 19.8808C13.677 19.0557 12.9637 17.6476 12.9637 16.0545C12.9637 15.201 13.1639 14.4187 13.5143 13.7359C15.5043 16.5239 18.4955 18.3445 21.8496 18.5437C21.787 18.2023 21.7494 17.8467 21.7494 17.4911C21.7494 14.9592 23.5517 12.8967 25.7919 12.8967C26.9558 12.8967 28.0071 13.4515 28.7455 14.3476C29.6591 14.1485 30.5352 13.7644 31.3112 13.2381C31.0108 14.3049 30.3725 15.2011 29.534 15.77C30.3475 15.6705 31.136 15.4144 31.8618 15.0588C31.3113 15.9691 30.6229 16.7799 29.8344 17.4342Z" fill="#53D1E2"/>
</svg>
