<svg width="44" height="44" viewBox="0 0 44 44" fill="none" xmlns="http://www.w3.org/2000/svg">
<rect y="0.00012207" width="44" height="44" rx="22" fill="#3AB137" fill-opacity="0.15"/>
<path d="M28.9076 15.7629C27.0629 13.9138 24.6062 12.8967 21.9954 12.8967C16.6064 12.8967 12.2213 17.2818 12.2213 22.6707C12.2213 24.3922 12.6704 26.074 13.5245 27.5578L12.1377 32.6209L17.3197 31.2604C18.7462 32.0397 20.3532 32.4492 21.991 32.4492H21.9954C27.3799 32.4492 31.8618 28.0641 31.8618 22.6751C31.8618 20.0643 30.7523 17.612 28.9076 15.7629ZM21.9954 30.8025C20.5337 30.8025 19.1028 30.4107 17.8568 29.6711L17.5618 29.4949L14.4887 30.3006L15.3076 27.3024L15.1139 26.9942C14.2994 25.6998 13.8724 24.2073 13.8724 22.6707C13.8724 18.1932 17.5178 14.5477 21.9998 14.5477C24.1703 14.5477 26.2088 15.3931 27.7409 16.9296C29.273 18.4662 30.2152 20.5046 30.2108 22.6751C30.2108 27.1571 26.4729 30.8025 21.9954 30.8025ZM26.4509 24.718C26.2088 24.5947 25.0068 24.0048 24.7823 23.9255C24.5577 23.8419 24.3948 23.8022 24.2319 24.0488C24.069 24.2953 23.6024 24.8413 23.4571 25.0086C23.3162 25.1715 23.1709 25.1935 22.9287 25.0702C21.4935 24.3526 20.5513 23.789 19.6047 22.1644C19.3537 21.733 19.8556 21.7638 20.3223 20.8304C20.4016 20.6675 20.362 20.5266 20.3003 20.4033C20.2387 20.2801 19.75 19.0781 19.5475 18.5894C19.3493 18.1139 19.1468 18.18 18.9971 18.1712C18.8562 18.1624 18.6933 18.1624 18.5304 18.1624C18.3675 18.1624 18.1034 18.224 17.8788 18.4662C17.6543 18.7127 17.0247 19.3027 17.0247 20.5046C17.0247 21.7065 17.9008 22.8689 18.0197 23.0318C18.143 23.1947 19.7412 25.6602 22.1935 26.7212C23.7432 27.3904 24.3508 27.4477 25.1257 27.3332C25.5968 27.2628 26.5698 26.7432 26.7723 26.1709C26.9748 25.5985 26.9748 25.1098 26.9132 25.0086C26.856 24.8985 26.6931 24.8369 26.4509 24.718Z" fill="#3AB137"/>
</svg>
