<svg width="42" height="43" viewBox="0 0 42 43" fill="none" xmlns="http://www.w3.org/2000/svg">
<circle cx="21.0997" cy="21.6294" r="20.8506" fill="url(#paint0_radial_1834_20388)"/>
<circle cx="20.7527" cy="21.4807" r="20.7019" fill="url(#paint1_radial_1834_20388)"/>
<path d="M28.4442 15.2927C28.4442 16.2125 27.6985 16.9582 26.7787 16.9582C25.8588 16.9582 25.1131 16.2125 25.1131 15.2927C25.1131 14.3728 25.8588 13.6272 26.7787 13.6272C27.6985 13.6272 28.4442 14.3728 28.4442 15.2927Z" fill="white"/>
<path fill-rule="evenodd" clip-rule="evenodd" d="M20.6718 26.9513C23.7379 26.9513 26.2235 24.4657 26.2235 21.3996C26.2235 18.3334 23.7379 15.8479 20.6718 15.8479C17.6057 15.8479 15.1201 18.3334 15.1201 21.3996C15.1201 24.4657 17.6057 26.9513 20.6718 26.9513ZM20.6718 24.7306C22.5115 24.7306 24.0028 23.2392 24.0028 21.3996C24.0028 19.5599 22.5115 18.0685 20.6718 18.0685C18.8321 18.0685 17.3408 19.5599 17.3408 21.3996C17.3408 23.2392 18.8321 24.7306 20.6718 24.7306Z" fill="white"/>
<path fill-rule="evenodd" clip-rule="evenodd" d="M9.56836 20.9554C9.56836 17.2243 9.56836 15.3588 10.2945 13.9337C10.9332 12.6801 11.9524 11.661 13.2059 11.0223C14.631 10.2961 16.4965 10.2961 20.2276 10.2961H21.1159C24.847 10.2961 26.7126 10.2961 28.1377 11.0223C29.3912 11.661 30.4104 12.6801 31.0491 13.9337C31.7752 15.3588 31.7752 17.2243 31.7752 20.9554V21.8437C31.7752 25.5748 31.7752 27.4403 31.0491 28.8654C30.4104 30.119 29.3912 31.1381 28.1377 31.7769C26.7126 32.503 24.847 32.503 21.1159 32.503H20.2276C16.4965 32.503 14.631 32.503 13.2059 31.7769C11.9524 31.1381 10.9332 30.119 10.2945 28.8654C9.56836 27.4403 9.56836 25.5748 9.56836 21.8437V20.9554ZM20.2276 12.5168H21.1159C23.0181 12.5168 24.3112 12.5186 25.3107 12.6002C26.2843 12.6798 26.7822 12.8239 27.1295 13.0009C27.9652 13.4267 28.6446 14.1062 29.0704 14.9419C29.2474 15.2892 29.3916 15.7871 29.4711 16.7606C29.5528 17.7601 29.5545 19.0532 29.5545 20.9554V21.8437C29.5545 23.7459 29.5528 25.039 29.4711 26.0385C29.3916 27.0121 29.2474 27.5099 29.0704 27.8573C28.6446 28.693 27.9652 29.3724 27.1295 29.7982C26.7822 29.9752 26.2843 30.1194 25.3107 30.1989C24.3112 30.2806 23.0181 30.2823 21.1159 30.2823H20.2276C18.3254 30.2823 17.0324 30.2806 16.0329 30.1989C15.0593 30.1194 14.5614 29.9752 14.2141 29.7982C13.3784 29.3724 12.6989 28.693 12.2731 27.8573C12.0962 27.5099 11.952 27.0121 11.8724 26.0385C11.7908 25.039 11.789 23.7459 11.789 21.8437V20.9554C11.789 19.0532 11.7908 17.7601 11.8724 16.7606C11.952 15.7871 12.0962 15.2892 12.2731 14.9419C12.6989 14.1062 13.3784 13.4267 14.2141 13.0009C14.5614 12.8239 15.0593 12.6798 16.0329 12.6002C17.0324 12.5186 18.3254 12.5168 20.2276 12.5168Z" fill="white"/>
<defs>
<radialGradient id="paint0_radial_1834_20388" cx="0" cy="0" r="1" gradientUnits="userSpaceOnUse" gradientTransform="translate(2.94789 41.5665) scale(52.9451)">
<stop offset="0.09" stop-color="#FA8F21"/>
<stop offset="0.78" stop-color="#D82D7E"/>
</radialGradient>
<radialGradient id="paint1_radial_1834_20388" cx="0" cy="0" r="1" gradientUnits="userSpaceOnUse" gradientTransform="translate(28.7298 39.9461) scale(46.2599 45.8335)">
<stop offset="0.64" stop-color="#8C3AAA" stop-opacity="0"/>
<stop offset="1" stop-color="#8C3AAA"/>
</radialGradient>
</defs>
</svg>
