<svg width="43" height="43" viewBox="0 0 43 43" fill="none" xmlns="http://www.w3.org/2000/svg">
<circle cx="21.198" cy="21.6321" r="20.8533" fill="#0077B5"/>
<path fill-rule="evenodd" clip-rule="evenodd" d="M16.3688 12.3119C16.3688 13.486 15.4748 14.4362 14.0767 14.4362C12.7332 14.4362 11.8392 13.486 11.8668 12.3119C11.8392 11.0807 12.7331 10.1582 14.1035 10.1582C15.4748 10.1582 16.342 11.0807 16.3688 12.3119ZM11.9792 29.7904V16.1144H16.2296V29.7896H11.9792V29.7904Z" fill="white"/>
<path fill-rule="evenodd" clip-rule="evenodd" d="M19.6368 20.4787C19.6368 18.7729 19.5806 17.3187 19.5244 16.116H23.2162L23.4125 17.9896H23.4963C24.0557 17.1224 25.4538 15.8091 27.719 15.8091C30.5151 15.8091 32.6126 17.655 32.6126 21.6805V29.7921H28.3623V22.2131C28.3623 20.4502 27.7475 19.2484 26.2094 19.2484C25.0345 19.2484 24.3359 20.0594 24.0566 20.8419C23.9442 21.122 23.8889 21.5128 23.8889 21.9053V29.7921H19.6385V20.4787H19.6368Z" fill="white"/>
</svg>
