<svg width="43" height="43" viewBox="0 0 43 43" fill="none" xmlns="http://www.w3.org/2000/svg">
<circle cx="21.491" cy="21.6321" r="20.8533" fill="#1DA1F2"/>
<path fill-rule="evenodd" clip-rule="evenodd" d="M32.6452 14.4531C31.8248 14.8176 30.942 15.063 30.016 15.1738C30.9613 14.6071 31.6872 13.7101 32.0286 12.6413C31.145 13.1664 30.164 13.5465 29.122 13.7525C28.2868 12.863 27.096 12.3066 25.7803 12.3066C23.2523 12.3066 21.2025 14.3564 21.2025 16.8845C21.2025 17.2429 21.2434 17.5925 21.3215 17.9279C17.5165 17.7375 14.1435 15.9146 11.8855 13.1449C11.4913 13.8209 11.266 14.6071 11.266 15.446C11.266 17.034 12.0729 18.4352 13.3024 19.2563C12.5512 19.2325 11.8461 19.0265 11.228 18.6836V18.7409C11.228 20.9595 12.807 22.8092 14.8999 23.2309C14.5162 23.335 14.1116 23.3916 13.6943 23.3916C13.399 23.3916 13.112 23.3626 12.8323 23.309C13.4147 25.1275 15.106 26.4514 17.1089 26.4886C15.5425 27.7158 13.5686 28.4484 11.4236 28.4484C11.0532 28.4484 10.6888 28.4268 10.3311 28.3836C12.357 29.6822 14.7631 30.4409 17.3484 30.4409C25.7684 30.4409 30.373 23.4652 30.373 17.4162C30.373 17.2177 30.3693 17.0198 30.3596 16.8242C31.2551 16.1771 32.0316 15.3709 32.6452 14.4531Z" fill="white"/>
</svg>
